# xmcd
#
# Track frame offsets: 
#        150
#        17159
#        36955
#        53384
#        71785
#        96341
#        125384
#        141511
#        163251
#        186544
#        201849
#        219950
#
# Disc length: 3077 seconds
#
# Revision: 1
# Processed by: cddbd v1.5.2PL0 Copyright (c) Steve Scherf et al.
# Submitted via: ExactAudioCopy v1.0b3
#
DISCID=b70c030c
DTITLE=The Odyssey Blues Band featuring Suzanne Hyatt - Something Borr
DTITLE=owed Something Blues
DYEAR=2001
DGENRE=Blues
TTITLE0=Lollipop Daddy
TTITLE1=Love Me Like a Man
TTITLE2=Little by Little
TTITLE3=Do I Move You
TTITLE4=Hoochie Coochie Gal
TTITLE5=Stormy Monday
TTITLE6=Beer Bottle Boogie
TTITLE7=Hurt So Bad
TTITLE8=Black Drawers
TTITLE9=Shaky Ground
TTITLE10=Bring it on Home to Me
TTITLE11=Jeff's Boogie
EXTD=www.odysseybluesband.com\ninfo@odysseybluesband.com
EXTT0=
EXTT1=
EXTT2=
EXTT3=
EXTT4=
EXTT5=
EXTT6=
EXTT7=
EXTT8=
EXTT9=
EXTT10=
EXTT11=
PLAYORDER=
